<?xml version="1.0" encoding="utf-8"?>
<!-- Generator: Adobe Illustrator 25.2.1, SVG Export Plug-In . SVG Version: 6.00 Build 0)  -->
<svg version="1.1" id="Layer_1" xmlns="http://www.w3.org/2000/svg" xmlns:xlink="http://www.w3.org/1999/xlink" x="0px" y="0px"
	 viewBox="0 0 792 290" style="enable-background:new 0 0 792 290;" xml:space="preserve">
<g>
	<path d="M26,115.09c0.88,1.69,2.04,3.06,3.5,4.11c1.45,1.05,3.16,1.83,5.12,2.33c1.96,0.51,3.99,0.76,6.09,0.76
		c1.42,0,2.94-0.12,4.56-0.35c1.62-0.24,3.14-0.69,4.56-1.37c1.42-0.68,2.6-1.61,3.55-2.79c0.95-1.18,1.42-2.69,1.42-4.51
		c0-1.96-0.63-3.55-1.88-4.77c-1.25-1.22-2.89-2.23-4.92-3.04c-2.03-0.81-4.33-1.52-6.9-2.13c-2.57-0.61-5.17-1.28-7.81-2.03
		c-2.71-0.68-5.34-1.5-7.91-2.48c-2.57-0.98-4.87-2.25-6.9-3.8c-2.03-1.55-3.67-3.5-4.92-5.83c-1.25-2.33-1.88-5.15-1.88-8.47
		c0-3.72,0.79-6.95,2.38-9.69c1.59-2.74,3.67-5.02,6.24-6.85c2.57-1.83,5.48-3.18,8.72-4.06c3.25-0.88,6.49-1.32,9.74-1.32
		c3.79,0,7.42,0.42,10.9,1.27c3.48,0.85,6.57,2.22,9.28,4.11c2.7,1.89,4.85,4.31,6.44,7.25c1.59,2.94,2.38,6.51,2.38,10.7H52.37
		c-0.14-2.16-0.59-3.96-1.37-5.38c-0.78-1.42-1.81-2.54-3.09-3.35c-1.29-0.81-2.76-1.39-4.41-1.72c-1.66-0.34-3.47-0.51-5.43-0.51
		c-1.29,0-2.57,0.14-3.85,0.41c-1.29,0.27-2.45,0.75-3.5,1.42c-1.05,0.68-1.91,1.52-2.59,2.54c-0.68,1.01-1.01,2.3-1.01,3.85
		c0,1.42,0.27,2.57,0.81,3.45c0.54,0.88,1.6,1.69,3.19,2.43c1.59,0.75,3.79,1.49,6.59,2.23c2.81,0.74,6.47,1.69,11,2.84
		c1.35,0.27,3.23,0.76,5.63,1.47c2.4,0.71,4.78,1.84,7.15,3.4c2.37,1.56,4.41,3.64,6.14,6.24c1.72,2.6,2.59,5.93,2.59,9.99
		c0,3.31-0.64,6.39-1.93,9.23c-1.29,2.84-3.19,5.29-5.73,7.35c-2.54,2.06-5.68,3.67-9.43,4.82c-3.75,1.15-8.1,1.72-13.03,1.72
		c-3.99,0-7.86-0.49-11.61-1.47c-3.75-0.98-7.07-2.52-9.94-4.61c-2.87-2.09-5.16-4.77-6.85-8.01c-1.69-3.25-2.5-7.1-2.43-11.56
		h15.42C24.68,111.33,25.12,113.4,26,115.09z"/>
	<path d="M130.76,60.52v13.39H92.53v15.52h35.09v12.37H92.53v17.75h39.05v13.39H76.61V60.52H130.76z"/>
	<path d="M154.19,60.52v59.03h35.29v13.39h-51.22V60.52H154.19z"/>
	<path d="M248.31,60.52v13.39h-34.99v16.73h30.32v12.37h-30.32v29.92h-15.92V60.52H248.31z"/>
</g>
<g>
	<path d="M346.86,58.89c3.25,0,6.17,0.52,8.77,1.57c2.6,1.05,4.83,2.48,6.69,4.31c1.86,1.83,3.28,3.94,4.26,6.34
		c0.98,2.4,1.47,4.99,1.47,7.76c0,4.26-0.9,7.95-2.69,11.05c-1.79,3.11-4.72,5.48-8.77,7.1v0.2c1.96,0.54,3.58,1.37,4.87,2.48
		c1.28,1.12,2.33,2.43,3.14,3.96c0.81,1.52,1.4,3.19,1.77,5.02c0.37,1.83,0.62,3.65,0.76,5.48c0.07,1.15,0.13,2.5,0.2,4.06
		c0.07,1.56,0.19,3.14,0.35,4.77c0.17,1.62,0.44,3.16,0.81,4.61c0.37,1.45,0.93,2.69,1.67,3.7h-15.92c-0.88-2.3-1.42-5.04-1.62-8.21
		c-0.2-3.18-0.51-6.22-0.91-9.13c-0.54-3.79-1.69-6.56-3.45-8.32c-1.76-1.76-4.63-2.64-8.62-2.64h-15.92v28.3h-15.92V58.89H346.86z
		 M341.18,91.65c3.65,0,6.39-0.81,8.21-2.43c1.83-1.62,2.74-4.26,2.74-7.91c0-3.51-0.91-6.07-2.74-7.66
		c-1.83-1.59-4.56-2.38-8.21-2.38h-17.44v20.39H341.18z"/>
	<path d="M430.12,58.89v13.39h-38.23V87.8h35.09v12.37h-35.09v17.75h39.05v13.39h-54.97V58.89H430.12z"/>
	<path d="M452.54,58.89v59.03h35.29v13.39h-51.22V58.89H452.54z"/>
	<path d="M509.63,58.89v72.41h-15.92V58.89H509.63z"/>
	<path d="M558.72,58.89l27.08,72.41h-16.53l-5.48-16.13h-27.08l-5.68,16.13h-16.02l27.38-72.41H558.72z M559.63,103.31l-9.13-26.57
		h-0.2l-9.43,26.57H559.63z"/>
	<path d="M606.89,58.89l30.22,48.58h0.2V58.89h14.91v72.41H636.3l-30.12-48.48h-0.2v48.48h-14.91V58.89H606.89z"/>
	<path d="M706.59,78.21c-0.95-1.52-2.13-2.86-3.55-4.01c-1.42-1.15-3.03-2.04-4.82-2.69c-1.79-0.64-3.67-0.96-5.63-0.96
		c-3.58,0-6.63,0.69-9.13,2.08c-2.5,1.39-4.53,3.25-6.08,5.58c-1.56,2.33-2.69,4.99-3.4,7.96c-0.71,2.98-1.07,6.05-1.07,9.23
		c0,3.04,0.36,6,1.07,8.87c0.71,2.87,1.84,5.46,3.4,7.76c1.55,2.3,3.58,4.14,6.08,5.53c2.5,1.39,5.54,2.08,9.13,2.08
		c4.87,0,8.67-1.49,11.41-4.46c2.74-2.97,4.41-6.9,5.02-11.76h15.42c-0.41,4.53-1.45,8.62-3.14,12.27
		c-1.69,3.65-3.92,6.76-6.69,9.33c-2.77,2.57-6.02,4.53-9.74,5.88c-3.72,1.35-7.81,2.03-12.27,2.03c-5.54,0-10.53-0.96-14.96-2.89
		c-4.43-1.93-8.16-4.58-11.21-7.96c-3.04-3.38-5.38-7.35-7-11.92c-1.62-4.56-2.43-9.48-2.43-14.76c0-5.41,0.81-10.43,2.43-15.06
		c1.62-4.63,3.96-8.67,7-12.12c3.04-3.45,6.78-6.15,11.21-8.11c4.43-1.96,9.42-2.94,14.96-2.94c3.99,0,7.76,0.58,11.31,1.72
		c3.55,1.15,6.73,2.82,9.53,5.02c2.81,2.2,5.12,4.92,6.95,8.16c1.83,3.25,2.97,6.96,3.45,11.16h-15.42
		C708.14,81.41,707.53,79.73,706.59,78.21z"/>
	<path d="M783.36,58.89v13.39h-38.23V87.8h35.09v12.37h-35.09v17.75h39.05v13.39H729.2V58.89H783.36z"/>
</g>
<g>
	<path d="M31.54,213.91c-0.4-0.63-0.89-1.19-1.48-1.67c-0.59-0.48-1.26-0.85-2.01-1.12c-0.75-0.27-1.53-0.4-2.35-0.4
		c-1.49,0-2.76,0.29-3.8,0.87c-1.04,0.58-1.89,1.35-2.54,2.32c-0.65,0.97-1.12,2.08-1.42,3.32c-0.3,1.24-0.44,2.52-0.44,3.85
		c0,1.27,0.15,2.5,0.44,3.7c0.3,1.2,0.77,2.28,1.42,3.23c0.65,0.96,1.49,1.73,2.54,2.3c1.04,0.58,2.31,0.87,3.8,0.87
		c2.03,0,3.61-0.62,4.75-1.86c1.14-1.24,1.84-2.87,2.09-4.9h6.42c-0.17,1.89-0.61,3.59-1.31,5.11c-0.7,1.52-1.63,2.82-2.79,3.89
		c-1.16,1.07-2.51,1.89-4.06,2.45s-3.25,0.84-5.11,0.84c-2.31,0-4.39-0.4-6.23-1.2s-3.4-1.91-4.67-3.32
		c-1.27-1.41-2.24-3.06-2.92-4.96c-0.68-1.9-1.01-3.95-1.01-6.15c0-2.25,0.34-4.35,1.01-6.28c0.68-1.93,1.65-3.61,2.92-5.05
		c1.27-1.44,2.82-2.56,4.67-3.38c1.85-0.82,3.92-1.23,6.23-1.23c1.66,0,3.23,0.24,4.71,0.72c1.48,0.48,2.8,1.18,3.97,2.09
		c1.17,0.92,2.13,2.05,2.9,3.4c0.76,1.35,1.24,2.9,1.44,4.65H32.3C32.19,215.24,31.93,214.54,31.54,213.91z"/>
	<path d="M48.57,214.18v4.06h0.08c0.28-0.68,0.66-1.3,1.14-1.88c0.48-0.58,1.03-1.07,1.65-1.48c0.62-0.41,1.28-0.72,1.99-0.95
		s1.44-0.34,2.2-0.34c0.39,0,0.83,0.07,1.31,0.21v5.58c-0.28-0.06-0.62-0.11-1.01-0.15c-0.39-0.04-0.77-0.06-1.14-0.06
		c-1.1,0-2.03,0.18-2.79,0.55s-1.37,0.87-1.84,1.5s-0.8,1.37-0.99,2.22c-0.2,0.84-0.3,1.76-0.3,2.75v9.85h-6v-21.85H48.57z"/>
	<path d="M64.96,230.79c0.9,0.87,2.2,1.31,3.89,1.31c1.21,0,2.25-0.3,3.13-0.91c0.87-0.61,1.41-1.25,1.61-1.92h5.28
		c-0.85,2.62-2.14,4.49-3.89,5.62c-1.75,1.13-3.86,1.69-6.34,1.69c-1.72,0-3.27-0.28-4.65-0.82c-1.38-0.55-2.55-1.33-3.51-2.35
		c-0.96-1.01-1.7-2.22-2.22-3.63c-0.52-1.41-0.78-2.96-0.78-4.65c0-1.63,0.27-3.16,0.8-4.56c0.53-1.41,1.3-2.63,2.28-3.66
		c0.99-1.03,2.16-1.84,3.53-2.43c1.37-0.59,2.88-0.89,4.54-0.89c1.86,0,3.48,0.36,4.86,1.08c1.38,0.72,2.51,1.68,3.4,2.89
		c0.89,1.21,1.53,2.59,1.92,4.14c0.39,1.55,0.54,3.17,0.42,4.86H63.48C63.57,228.51,64.06,229.92,64.96,230.79z M71.75,219.29
		c-0.72-0.79-1.81-1.18-3.27-1.18c-0.96,0-1.75,0.16-2.39,0.49c-0.63,0.32-1.14,0.73-1.52,1.21c-0.38,0.48-0.65,0.99-0.8,1.52
		c-0.16,0.54-0.25,1.01-0.27,1.44h9.76C72.96,221.24,72.46,220.08,71.75,219.29z"/>
	<path d="M98.3,233.24c-0.7,1.18-1.63,2.04-2.77,2.56c-1.14,0.52-2.43,0.78-3.87,0.78c-1.63,0-3.07-0.32-4.31-0.95
		c-1.24-0.63-2.26-1.49-3.06-2.58c-0.8-1.08-1.41-2.33-1.82-3.74c-0.41-1.41-0.61-2.87-0.61-4.4c0-1.46,0.2-2.88,0.61-4.25
		c0.41-1.37,1.01-2.57,1.82-3.61c0.8-1.04,1.81-1.88,3.02-2.51c1.21-0.63,2.62-0.95,4.23-0.95c1.3,0,2.53,0.27,3.7,0.82
		c1.17,0.55,2.09,1.36,2.77,2.43h0.08v-10.99h6v30.17h-5.71v-2.79H98.3z M98.05,222.44c-0.17-0.83-0.46-1.56-0.87-2.2
		c-0.41-0.63-0.94-1.15-1.58-1.54c-0.65-0.39-1.46-0.59-2.45-0.59c-0.99,0-1.82,0.2-2.49,0.59c-0.68,0.4-1.22,0.92-1.63,1.56
		c-0.41,0.65-0.7,1.39-0.89,2.22c-0.18,0.83-0.27,1.7-0.27,2.6c0,0.84,0.1,1.69,0.3,2.54c0.2,0.84,0.51,1.6,0.95,2.26
		c0.44,0.66,0.99,1.2,1.65,1.61c0.66,0.41,1.46,0.61,2.39,0.61c0.99,0,1.81-0.2,2.47-0.59c0.66-0.39,1.19-0.92,1.58-1.58
		c0.39-0.66,0.68-1.42,0.85-2.26c0.17-0.84,0.25-1.72,0.25-2.62C98.3,224.14,98.22,223.27,98.05,222.44z"/>
	<path d="M108.78,210.8v-4.94h6v4.94H108.78z M114.78,214.18v21.85h-6v-21.85H114.78z"/>
	<path d="M131.52,214.18v4.01h-4.4v10.82c0,1.01,0.17,1.69,0.51,2.03c0.34,0.34,1.01,0.51,2.03,0.51c0.34,0,0.66-0.01,0.97-0.04
		c0.31-0.03,0.61-0.07,0.89-0.13v4.65c-0.51,0.08-1.07,0.14-1.69,0.17c-0.62,0.03-1.23,0.04-1.82,0.04c-0.93,0-1.81-0.06-2.64-0.19
		c-0.83-0.13-1.56-0.37-2.2-0.74c-0.63-0.37-1.13-0.89-1.5-1.56c-0.37-0.68-0.55-1.56-0.55-2.66V218.2h-3.63v-4.01h3.63v-6.55h6
		v6.55H131.52z"/>
</g>
<g>
	<path d="M687.12,233.73c-2.46,1.99-5.85,2.98-10.18,2.98c-4.39,0-7.79-0.99-10.2-2.96c-2.41-1.97-3.61-5.01-3.61-9.13v-18.76h7.14
		v18.76c0,0.82,0.08,1.62,0.23,2.41c0.15,0.79,0.47,1.49,0.95,2.09c0.48,0.61,1.16,1.1,2.02,1.48c0.86,0.38,2.02,0.57,3.48,0.57
		c2.54,0,4.3-0.53,5.27-1.58s1.45-2.71,1.45-4.96v-18.76h7.14v18.76C690.8,228.71,689.57,231.74,687.12,233.73z"/>
	<path d="M702.39,214.18v3.04h0.14c0.82-1.27,1.88-2.19,3.18-2.77s2.64-0.87,4-0.87c1.73,0,3.14,0.22,4.25,0.65
		c1.11,0.44,1.98,1.04,2.61,1.82c0.64,0.78,1.08,1.72,1.34,2.83c0.26,1.11,0.39,2.35,0.39,3.7v13.44h-6.45v-12.34
		c0-1.8-0.3-3.15-0.91-4.04c-0.61-0.89-1.68-1.33-3.23-1.33c-1.76,0-3.03,0.49-3.82,1.46c-0.79,0.97-1.18,2.57-1.18,4.8v11.45h-6.45
		v-21.85H702.39z"/>
	<path d="M723.39,210.8v-4.94h6.45v4.94H723.39z M729.84,214.18v21.85h-6.45v-21.85H729.84z"/>
	<path d="M735.07,220.37c0.58-1.42,1.39-2.63,2.45-3.63c1.06-1,2.33-1.77,3.82-2.32c1.48-0.55,3.15-0.82,5-0.82
		c1.85,0,3.52,0.27,5.02,0.82c1.5,0.55,2.78,1.33,3.84,2.32c1.06,1,1.88,2.21,2.45,3.63c0.58,1.42,0.86,3.01,0.86,4.75
		s-0.29,3.32-0.86,4.73c-0.58,1.41-1.39,2.61-2.45,3.61c-1.06,1-2.34,1.77-3.84,2.3c-1.5,0.54-3.17,0.8-5.02,0.8
		c-1.85,0-3.52-0.27-5-0.8c-1.49-0.53-2.76-1.3-3.82-2.3s-1.88-2.2-2.45-3.61c-0.58-1.41-0.86-2.99-0.86-4.73
		S734.49,221.8,735.07,220.37z M740.93,227.68c0.18,0.83,0.49,1.58,0.93,2.24c0.44,0.66,1.02,1.19,1.75,1.58s1.64,0.59,2.73,0.59
		s2.01-0.2,2.75-0.59c0.74-0.39,1.33-0.92,1.77-1.58c0.44-0.66,0.75-1.41,0.93-2.24s0.27-1.68,0.27-2.56s-0.09-1.73-0.27-2.58
		c-0.18-0.84-0.49-1.59-0.93-2.24c-0.44-0.65-1.03-1.18-1.77-1.58c-0.74-0.41-1.66-0.61-2.75-0.61s-2,0.2-2.73,0.61
		c-0.73,0.41-1.31,0.94-1.75,1.58c-0.44,0.65-0.75,1.39-0.93,2.24c-0.18,0.85-0.27,1.71-0.27,2.58S740.75,226.85,740.93,227.68z"/>
	<path d="M768.84,214.18v3.04h0.14c0.82-1.27,1.88-2.19,3.18-2.77s2.64-0.87,4-0.87c1.73,0,3.14,0.22,4.25,0.65
		c1.11,0.44,1.98,1.04,2.61,1.82c0.64,0.78,1.08,1.72,1.34,2.83c0.26,1.11,0.39,2.35,0.39,3.7v13.44h-6.45v-12.34
		c0-1.8-0.3-3.15-0.91-4.04c-0.61-0.89-1.68-1.33-3.23-1.33c-1.76,0-3.03,0.49-3.82,1.46c-0.79,0.97-1.18,2.57-1.18,4.8v11.45h-6.45
		v-21.85H768.84z"/>
</g>
<g>
	<line x1="171.37" y1="216.61" x2="616.21" y2="216.61"/>
	<rect x="171.37" y="215.55" width="444.84" height="2.11"/>
</g>
</svg>
