<?xml version="1.0" encoding="utf-8"?>
<!-- Generator: Adobe Illustrator 25.2.1, SVG Export Plug-In . SVG Version: 6.00 Build 0)  -->
<svg version="1.1" id="Layer_1" xmlns="http://www.w3.org/2000/svg" xmlns:xlink="http://www.w3.org/1999/xlink" x="0px" y="0px"
	 viewBox="0 0 792 170" style="enable-background:new 0 0 792 170;" xml:space="preserve">
<g>
	<path d="M26,101.2c0.9,1.7,2,3.1,3.5,4.1c1.5,1.1,3.2,1.8,5.1,2.3c2,0.5,4,0.8,6.1,0.8c1.4,0,2.9-0.1,4.6-0.4
		c1.6-0.2,3.1-0.7,4.6-1.4c1.4-0.7,2.6-1.6,3.5-2.8c1-1.2,1.4-2.7,1.4-4.5c0-2-0.6-3.6-1.9-4.8s-2.9-2.2-4.9-3s-4.3-1.5-6.9-2.1
		s-5.2-1.3-7.8-2c-2.7-0.7-5.3-1.5-7.9-2.5s-4.9-2.2-6.9-3.8s-3.7-3.5-4.9-5.8s-1.9-5.2-1.9-8.5c0-3.7,0.8-6.9,2.4-9.7
		c1.6-2.7,3.7-5,6.2-6.8s5.5-3.2,8.7-4.1c3.2-0.9,6.5-1.3,9.7-1.3c3.8,0,7.4,0.4,10.9,1.3c3.5,0.8,6.6,2.2,9.3,4.1
		c2.7,1.9,4.8,4.3,6.4,7.2c1.6,2.9,2.4,6.5,2.4,10.7H52.4c-0.1-2.2-0.6-4-1.4-5.4c-0.8-1.4-1.8-2.5-3.1-3.3
		c-1.3-0.8-2.8-1.4-4.4-1.7c-1.7-0.3-3.5-0.5-5.4-0.5c-1.3,0-2.6,0.1-3.8,0.4c-1.3,0.3-2.5,0.8-3.5,1.4c-1,0.7-1.9,1.5-2.6,2.5
		c-0.7,1-1,2.3-1,3.8c0,1.4,0.3,2.6,0.8,3.4c0.5,0.9,1.6,1.7,3.2,2.4c1.6,0.8,3.8,1.5,6.6,2.2c2.8,0.7,6.5,1.7,11,2.8
		c1.3,0.3,3.2,0.8,5.6,1.5s4.8,1.8,7.2,3.4c2.4,1.6,4.4,3.6,6.1,6.2c1.7,2.6,2.6,5.9,2.6,10c0,3.3-0.6,6.4-1.9,9.2s-3.2,5.3-5.7,7.4
		c-2.5,2.1-5.7,3.7-9.4,4.8c-3.8,1.1-8.1,1.7-13,1.7c-4,0-7.9-0.5-11.6-1.5s-7.1-2.5-9.9-4.6s-5.2-4.8-6.9-8
		C10,103.4,9.2,99.5,9.3,95h15.4C24.7,97.5,25.1,99.5,26,101.2z"/>
	<path d="M130.8,46.7V60H92.5v15.5h35.1v12.4H92.5v17.8h39.1v13.4h-55V46.7H130.8z"/>
	<path d="M154.2,46.7v59h35.3v13.4h-51.2V46.7H154.2z"/>
	<path d="M248.3,46.7V60h-35v16.7h30.3v12.4h-30.3v29.9h-15.9V46.7H248.3z"/>
</g>
<g>
	<path d="M346.9,45c3.2,0,6.2,0.5,8.8,1.6c2.6,1,4.8,2.5,6.7,4.3c1.9,1.8,3.3,3.9,4.3,6.3s1.5,5,1.5,7.8c0,4.3-0.9,7.9-2.7,11.1
		c-1.8,3.1-4.7,5.5-8.8,7.1v0.2c2,0.5,3.6,1.4,4.9,2.5c1.3,1.1,2.3,2.4,3.1,4c0.8,1.5,1.4,3.2,1.8,5s0.6,3.6,0.8,5.5
		c0.1,1.2,0.1,2.5,0.2,4.1s0.2,3.1,0.4,4.8c0.2,1.6,0.4,3.2,0.8,4.6s0.9,2.7,1.7,3.7h-15.9c-0.9-2.3-1.4-5-1.6-8.2
		c-0.2-3.2-0.5-6.2-0.9-9.1c-0.5-3.8-1.7-6.6-3.5-8.3c-1.8-1.8-4.6-2.6-8.6-2.6h-15.9v28.3h-15.9V45H346.9z M341.2,77.8
		c3.6,0,6.4-0.8,8.2-2.4c1.8-1.6,2.7-4.3,2.7-7.9c0-3.5-0.9-6.1-2.7-7.7c-1.8-1.6-4.6-2.4-8.2-2.4h-17.4v20.4L341.2,77.8L341.2,77.8
		z"/>
	<path d="M430.1,45v13.4h-38.2v15.5H427v12.4h-35.1v17.8h39v13.4h-55V45H430.1z"/>
	<path d="M452.5,45v59h35.3v13.4h-51.2V45H452.5z"/>
	<path d="M509.6,45v72.4h-15.9V45H509.6z"/>
	<path d="M558.7,45l27.1,72.4h-16.5l-5.5-16.1h-27.1l-5.7,16.1h-16L542.4,45H558.7z M559.6,89.4l-9.1-26.6h-0.2l-9.4,26.6H559.6z"/>
	<path d="M606.9,45l30.2,48.6h0.2V45h14.9v72.4h-15.9L606.2,69H606v48.5h-14.9V45H606.9z"/>
	<path d="M706.6,64.3c-1-1.5-2.1-2.9-3.5-4s-3-2-4.8-2.7c-1.8-0.6-3.7-1-5.6-1c-3.6,0-6.6,0.7-9.1,2.1s-4.5,3.2-6.1,5.6
		c-1.6,2.3-2.7,5-3.4,8c-0.7,3-1.1,6.1-1.1,9.2c0,3,0.4,6,1.1,8.9c0.7,2.9,1.8,5.5,3.4,7.8c1.5,2.3,3.6,4.1,6.1,5.5s5.5,2.1,9.1,2.1
		c4.9,0,8.7-1.5,11.4-4.5s4.4-6.9,5-11.8h15.4c-0.4,4.5-1.5,8.6-3.1,12.3c-1.7,3.7-3.9,6.8-6.7,9.3c-2.8,2.6-6,4.5-9.7,5.9
		s-7.8,2-12.3,2c-5.5,0-10.5-1-15-2.9s-8.2-4.6-11.2-8c-3-3.4-5.4-7.4-7-11.9c-1.6-4.6-2.4-9.5-2.4-14.8c0-5.4,0.8-10.4,2.4-15.1
		s4-8.7,7-12.1c3-3.4,6.8-6.2,11.2-8.1s9.4-2.9,15-2.9c4,0,7.8,0.6,11.3,1.7c3.5,1.2,6.7,2.8,9.5,5c2.8,2.2,5.1,4.9,7,8.2
		c1.8,3.2,3,7,3.5,11.2h-15.4C708.1,67.5,707.5,65.9,706.6,64.3z"/>
	<path d="M783.4,45v13.4h-38.2v15.5h35.1v12.4h-35.1v17.8h39v13.4h-55V45H783.4z"/>
</g>
</svg>
